<?xml version="1.0" encoding="UTF-8" standalone="no"?>
<!-- Created with Inkscape (http://www.inkscape.org/) -->

<svg
   xmlns:dc="http://purl.org/dc/elements/1.1/"
   xmlns:cc="http://creativecommons.org/ns#"
   xmlns:rdf="http://www.w3.org/1999/02/22-rdf-syntax-ns#"
   xmlns:svg="http://www.w3.org/2000/svg"
   xmlns="http://www.w3.org/2000/svg"
   xmlns:sodipodi="http://sodipodi.sourceforge.net/DTD/sodipodi-0.dtd"
   xmlns:inkscape="http://www.inkscape.org/namespaces/inkscape"
   width="534.86682mm"
   height="56.847351mm"
   viewBox="0 0 534.86682 56.847351"
   version="1.1"
   id="svg8"
   inkscape:version="0.92.3 (2405546, 2018-03-11)"
   sodipodi:docname="logo branco.svg">
  <defs
     id="defs2" />
  <sodipodi:namedview
     id="base"
     pagecolor="#ffffff"
     bordercolor="#666666"
     borderopacity="1.0"
     inkscape:pageopacity="0.0"
     inkscape:pageshadow="2"
     inkscape:zoom="0.35"
     inkscape:cx="964.61091"
     inkscape:cy="-132.57194"
     inkscape:document-units="mm"
     inkscape:current-layer="g823"
     showgrid="false"
     inkscape:window-width="1360"
     inkscape:window-height="715"
     inkscape:window-x="-8"
     inkscape:window-y="-8"
     inkscape:window-maximized="1" />
  <metadata
     id="metadata5">
    <rdf:RDF>
      <cc:Work
         rdf:about="">
        <dc:format>image/svg+xml</dc:format>
        <dc:type
           rdf:resource="http://purl.org/dc/dcmitype/StillImage" />
        <dc:title></dc:title>
      </cc:Work>
    </rdf:RDF>
  </metadata>
  <g
     inkscape:label="Camada 1"
     inkscape:groupmode="layer"
     id="layer1"
     transform="translate(301.0733,-120.40966)">
    <g
       transform="matrix(0.35277777,0,0,-0.35277777,-315.86245,201.74998)"
       inkscape:label="LogoVerticalNegativo"
       id="g823">
      <path
         inkscape:connector-curvature="0"
         id="path825"
         style="fill:#ffffff;fill-opacity:1;fill-rule:nonzero;stroke:none"
         d="m 564.326,230.571 c -40.587,0 -35.521,-160.0182 -83.271,-161.117 -18.237,0.4975 -27.187,33.572 -35.982,69.63 11.002,43.574 19.539,91.487 41.745,91.487 z M 403.958,69.4289 h -0.897 c 0.166,0 0.322,0.0214 0.486,0.0251 0.139,-0.0037 0.272,-0.0251 0.411,-0.0251" />
      <path
         inkscape:connector-curvature="0"
         id="path827"
         style="fill:#ffffff;fill-opacity:1;fill-rule:nonzero;stroke:none"
         d="m 383.756,230.571 -0.03,-0.002 h -77.474 c 21.586,0 32.471,-32.222 41.551,-67.845 -10.72,-43.765 -20.992,-92.6649 -47.315,-93.27 -18.239,0.4975 -27.188,33.581 -35.985,69.645 10.998,43.57 19.538,91.472 41.743,91.472 z M 223.39,69.4289 h -0.902 c 0.166,0 0.325,0.0214 0.489,0.0251 0.139,-0.0037 0.272,-0.0251 0.413,-0.0251" />
      <path
         inkscape:connector-curvature="0"
         id="path829"
         style="fill:#ffffff;fill-opacity:1;fill-rule:nonzero;stroke:none"
         d="m 203.19,230.571 -0.03,-0.002 h -77.474 c 21.587,0 32.471,-32.226 41.551,-67.854 C 156.452,118.672 146.12,69.4289 119.434,69.4289 H 41.922 c 48.2766,0 43.0289,161.1421 83.756,161.1421 z" />
      <path
         inkscape:connector-curvature="0"
         id="path831"
         style="fill:#ffffff;fill-opacity:1;fill-rule:nonzero;stroke:none"
         d="m 293.926,69.4295 c -40.724,0 -35.481,161.1405 -83.754,161.1405 h -77.511 c 48.273,0 43.029,-161.1405 83.754,-161.1405 z" />
      <path
         inkscape:connector-curvature="0"
         id="path833"
         style="fill:#ffffff;fill-opacity:1;fill-rule:nonzero;stroke:none"
         d="m 474.494,69.4295 c -40.727,0 -35.484,161.1405 -83.755,161.1405 h -77.512 c 48.275,0 43.031,-161.1405 83.756,-161.1405 z" />
      <path
         inkscape:connector-curvature="0"
         id="path835"
         style="fill:#ffffff;fill-opacity:1;fill-rule:nonzero;stroke:none"
         d="m 698.007,163.969 -14.958,-51.305 c -2.493,-9.972 -8.726,-14.9579 -18.697,-14.9579 h -14.958 c -9.972,0 -16.204,4.9859 -18.697,14.9579 l -26.176,89.746 h 33.655 l 18.697,-74.788 14.957,59.831 c 2.493,9.971 8.726,14.957 18.698,14.957 h 14.957 c 9.972,0 16.205,-4.986 18.698,-14.957 l 14.957,-59.831 18.698,74.788 h 33.655 l -26.177,-89.746 c -2.492,-9.972 -8.725,-14.9579 -18.697,-14.9579 h -14.957 c -9.972,0 -16.205,4.9859 -18.698,14.9579 z" />
      <path
         inkscape:connector-curvature="0"
         id="path837"
         style="fill:#ffffff;fill-opacity:1;fill-rule:nonzero;stroke:none"
         d="m 795.232,97.7061 h 29.9155 v 104.704 H 795.232 Z" />
      <path
         inkscape:connector-curvature="0"
         id="path839"
         style="fill:#ffffff;fill-opacity:1;fill-rule:nonzero;stroke:none"
         d="m 926.112,161.277 c 7.479,0 11.219,2.493 11.219,7.478 v 3.74 c 0,4.986 -3.74,7.479 -11.219,7.479 l -63.699,0.173 -0.022,-18.87 h -29.765 v 18.697 l 0.075,22.436 h 93.411 c 27.423,0 41.134,-9.971 41.134,-29.915 v -3.74 c 0,-17.4 -10.42,-27.198 -31.261,-29.392 L 974.842,97.5896 H 937.447 L 899.039,138.84 H 862.542 V 97.7061 h -29.916 v 63.5709 z" />
      <path
         inkscape:connector-curvature="0"
         id="path841"
         style="fill:#ffffff;fill-opacity:1;fill-rule:nonzero;stroke:none"
         d="m 1004.64,138.84 v -3.74 c 0,-9.971 4.99,-14.957 14.96,-14.957 h 74.79 V 97.7061 h -74.79 c -29.917,0 -44.875,12.4649 -44.875,37.3939 v 29.916 c 0,24.93 14.958,37.394 44.875,37.394 h 74.79 l 0.07,-22.436 h -74.86 c -9.97,0 -14.96,-4.986 -14.96,-14.958 v -3.739 h 89.75 V 138.84 Z" />
      <path
         inkscape:connector-curvature="0"
         id="path843"
         style="fill:#ffffff;fill-opacity:1;fill-rule:nonzero;stroke:none"
         d="m 1131.78,135.1 c 0,-9.971 4.99,-14.957 14.96,-14.957 h 74.79 V 97.7061 h -74.79 c -29.92,0 -44.87,12.4649 -44.87,37.3939 v 67.31 h 29.91 z" />
      <path
         inkscape:connector-curvature="0"
         id="path845"
         style="fill:#ffffff;fill-opacity:1;fill-rule:nonzero;stroke:none"
         d="m 1229.01,97.7061 h 29.9155 v 104.704 H 1229.01 Z" />
      <path
         inkscape:connector-curvature="0"
         id="path847"
         style="fill:#ffffff;fill-opacity:1;fill-rule:nonzero;stroke:none"
         d="m 1300.36,172.495 c -2.7,0 -4.04,-1.247 -4.04,-3.74 V 97.7061 h -29.92 v 71.0489 c 0,22.437 12.47,33.655 37.4,33.655 10.97,0 19.69,-4.986 26.17,-14.957 l 37.4,-56.092 c 2.49,-2.493 4.88,-3.739 7.18,-3.739 2.69,0 4.03,1.246 4.03,3.739 v 71.049 h 29.92 v -71.049 c 0,-22.437 -12.46,-33.6549 -37.39,-33.6549 -10.97,0 -19.7,4.9859 -26.18,14.9579 l -37.39,56.091 c -2.45,2.493 -4.84,3.74 -7.18,3.74 z" />
      <path
         inkscape:connector-curvature="0"
         id="path849"
         style="fill:#ffffff;fill-opacity:1;fill-rule:nonzero;stroke:none"
         d="m 1520.68,202.41 h 37.4 l -55.42,-41.956 51.68,-62.7479 h -33.66 l -40.46,45.8459 -34.33,-26.027 V 97.7061 h -29.91 V 202.41 h 29.91 v -56.615 z" />
    </g>
  </g>
</svg>
